<?xml version="1.0" encoding="utf-8"?>
<!-- Generator: Adobe Illustrator 21.1.0, SVG Export Plug-In . SVG Version: 6.00 Build 0)  -->
<svg version="1.1" id="Warstwa_1" xmlns="http://www.w3.org/2000/svg" xmlns:xlink="http://www.w3.org/1999/xlink" x="0px" y="0px"
	 viewBox="0 0 100 100" style="enable-background:new 0 0 100 100;" xml:space="preserve">
<style type="text/css">
	.st0{fill:url(#SVGID_1_);}
</style>
<g id="Warstwa_x0020_1">
	
		<linearGradient id="SVGID_1_" gradientUnits="userSpaceOnUse" x1="50" y1="102.6799" x2="50" y2="2.6799" gradientTransform="matrix(1 0 0 -1 0 102.6799)">
		<stop  offset="0" style="stop-color:#6753EC"/>
		<stop  offset="1" style="stop-color:#835BF5"/>
	</linearGradient>
	<path class="st0" d="M0.1,7.8v84.4c0,4.3,3.5,7.8,7.8,7.8h45.5V61.4h-13V45.6h13V32.4c0-9.6,7.8-17.4,17.4-17.4h13.6v14.1h-9.7
		c-3,0-5.5,2.5-5.5,5.5v10.9h15L82,61.3h-13v38.6h23.2c4.3,0,7.8-3.5,7.8-7.8V7.8c0-4.3-3.5-7.8-7.8-7.8H7.8C3.5,0,0,3.5,0.1,7.8
		L0.1,7.8z"/>
</g>
</svg>
