<?xml version="1.0" encoding="utf-8"?>
<!-- Generator: Adobe Illustrator 21.1.0, SVG Export Plug-In . SVG Version: 6.00 Build 0)  -->
<svg version="1.1" id="Warstwa_1" xmlns="http://www.w3.org/2000/svg" xmlns:xlink="http://www.w3.org/1999/xlink" x="0px" y="0px"
	 viewBox="0 0 100 100" style="enable-background:new 0 0 100 100;" xml:space="preserve">
<style type="text/css">
	.st0{fill:url(#SVGID_1_);}
	.st1{fill:url(#SVGID_2_);}
</style>
<g id="Warstwa_x0020_1">

		<linearGradient id="SVGID_1_" gradientUnits="userSpaceOnUse" x1="49.6046" y1="76.5904" x2="49.6046" y2="28.4373" gradientTransform="matrix(1 0 0 -1 0 99.6801)">
		<stop  offset="0" style="stop-color:#ffffff"/>
		<stop  offset="1" style="stop-color:#ffffff"/>
	</linearGradient>
	<path class="st0" d="M64.2,23.1H35.4c-1.8,0-2.4,0.6-2.4,2.4c0,15,0,29.9,0,44.9c0,0.3-0.1,0.5,0.1,0.8c0.1-0.1,0.2-0.2,0.3-0.3
		c2.6-3.2,5.2-6.5,7.8-9.8c1.5-1.8,3-3.8,4.6-5.6c0.5-0.6,1.2-0.9,2-0.9c1.2-0.1,2.4-0.1,3.6-0.1c2.5,0,5,0,7.5,0
		c1.1,0,1.7-0.5,1.9-1.5c0.6-2.7,1.1-5.5,1.6-8.2c0.1-0.8-0.1-1.5-0.7-1.9c-0.4-0.3-0.9-0.3-1.4-0.3c-3.9,0-7.8,0-11.7,0
		c-1.8,0-3.1-1.3-3.2-3.1c0-0.4,0-0.7,0-1.1c0-2.3,1.2-3.5,3.6-3.5c4.6,0,9,0,13.6,0c1.3,0,2-0.6,2.2-1.8c0.5-2.4,1.1-4.9,1.5-7.5
		c0.3-1.8-0.4-2.6-2.2-2.6L64.2,23.1z"/>

		<linearGradient id="SVGID_2_" gradientUnits="userSpaceOnUse" x1="50" y1="99.6801" x2="50" y2="-0.3199" gradientTransform="matrix(1 0 0 -1 0 99.6801)">
		<stop  offset="0" style="stop-color:#ffffff"/>
		<stop  offset="1" style="stop-color:#ffffff"/>
	</linearGradient>
	<path class="st1" d="M0,7.8v84.4c0,4.3,3.5,7.8,7.8,7.8h84.4c4.3,0,7.8-3.5,7.8-7.8V7.8c0-4.3-3.5-7.8-7.8-7.8H7.8
		C3.5,0,0,3.5,0,7.8z M74,26.5c-2,9.9-4.1,19.8-6.1,29.7c-0.1,0.7-0.3,1.3-0.5,1.8c-0.9,2.9-2.8,4.3-5.9,4.4c-3.5,0-7,0-10.5,0
		c-0.7,0-1.1,0.2-1.5,0.7c-2.6,3.1-5.3,6.2-7.9,9.2c-3.2,3.7-6.3,7.4-9.5,11c-1,1.2-3,1.6-4.4,1.1c-1.6-0.6-2.2-1.8-2.4-3.4
		c0-0.3,0-0.5,0-0.7c0-19.5,0-39,0-58.4c0-2.5,1-4.4,3.2-5.7c0.7-0.4,1.5-0.5,2.3-0.7h39.2c0.5,0.1,1.1,0.2,1.5,0.3
		c1.9,0.6,3.1,2,3.3,4c0.3,2.3-0.3,4.5-0.7,6.7L74,26.5z"/>
</g>
</svg>
