<?xml version="1.0" encoding="utf-8"?>
<!-- Generator: Adobe Illustrator 21.1.0, SVG Export Plug-In . SVG Version: 6.00 Build 0)  -->
<svg version="1.1" id="Warstwa_1" xmlns="http://www.w3.org/2000/svg" xmlns:xlink="http://www.w3.org/1999/xlink" x="0px" y="0px"
	 viewBox="0 0 31 35" style="enable-background:new 0 0 31 35;" xml:space="preserve">
<style type="text/css">
	.st0{fill:url(#SVGID_1_);}
</style>
<g id="Warstwa_x0020_1">
	
		<linearGradient id="SVGID_1_" gradientUnits="userSpaceOnUse" x1="15.5" y1="27.6816" x2="15.5" y2="6.6799" gradientTransform="matrix(1 0 0 -1 0 34.6801)">
		<stop  offset="0" style="stop-color:#6753EC"/>
		<stop  offset="1" style="stop-color:#835BF5"/>
	</linearGradient>
	<path class="st0" d="M30,5h-7.2V3.8C22.8,1.7,21,0,18.9,0H12C9.9,0,8.2,1.7,8.2,3.8V5H1C0.4,5,0,5.5,0,6s0.4,1,1,1h1.7v22.8
		C2.7,32.7,5,35,7.9,35h15.2c2.9,0,5.2-2.3,5.2-5.2V7H30c0.5,0,1-0.4,1-1S30.6,5,30,5L30,5z M21.8,28.5c0.5,0,1-0.4,1-1v-15
		c0-0.5-0.4-1-1-1c-0.5,0-1,0.4-1,1v15C20.8,28.1,21.3,28.5,21.8,28.5z M9.2,28.5c0.5,0,1-0.4,1-1v-15c0-0.5-0.4-1-1-1s-1,0.4-1,1
		v15C8.2,28.1,8.6,28.5,9.2,28.5z M15.5,29.6c0.5,0,1-0.4,1-1V11.4c0-0.5-0.4-1-1-1c-0.5,0-1,0.4-1,1v17.2
		C14.5,29.1,15,29.6,15.5,29.6z M10.1,3.8c0-1.1,0.9-1.9,1.9-1.9h6.9c1.1,0,1.9,0.9,1.9,1.9V5H10.1V3.8z M26.3,29.8
		c0,1.8-1.5,3.3-3.2,3.3H7.9c-1.8,0-3.2-1.5-3.2-3.3V7h21.7V29.8L26.3,29.8z"/>
</g>
</svg>
