<?xml version="1.0" encoding="utf-8"?>
<!-- Generator: Adobe Illustrator 21.1.0, SVG Export Plug-In . SVG Version: 6.00 Build 0)  -->
<svg version="1.1" id="Warstwa_1" xmlns="http://www.w3.org/2000/svg" xmlns:xlink="http://www.w3.org/1999/xlink" x="0px" y="0px"
	 viewBox="0 0 100 100" style="enable-background:new 0 0 100 100;" xml:space="preserve">
<style type="text/css">
	.st0{fill:url(#SVGID_1_);}
</style>
<g id="Warstwa_x0020_1">
	
		<linearGradient id="SVGID_1_" gradientUnits="userSpaceOnUse" x1="50" y1="99.6801" x2="50" y2="-0.3199" gradientTransform="matrix(1 0 0 -1 0 99.6801)">
		<stop  offset="0" style="stop-color:#6753EC"/>
		<stop  offset="1" style="stop-color:#835BF5"/>
	</linearGradient>
	<path class="st0" d="M0,7.8v84.5c0,4.3,3.5,7.8,7.8,7.8h84.5c4.3,0,7.8-3.5,7.8-7.8V7.8c0-4.3-3.5-7.8-7.8-7.8H7.8
		C3.5,0,0,3.5,0,7.8z M58.3,54.2c-1.7,11.3-10.1,17.6-20.9,17.6c-12.2,0-22.1-9.9-22.1-22.1s9.9-22.1,22.1-22.1
		c5.9,0,11.1,2.1,14.8,5.7l-6.3,6.3c-2.2-2.2-5.1-3.3-8.5-3.3c-7.2,0-13,6.1-13,13.3s5.8,13.1,13,13.1c6,0,10.5-2.9,11.8-8.8H37.3
		v-8.9h20.9c0.3,1.4,0.4,2.9,0.4,4.5C58.6,51.2,58.5,52.7,58.3,54.2L58.3,54.2z M84.7,51.4H77v7.7h-5.5v-7.7h-7.7V46h7.7v-7.7H77V46
		h7.7V51.4z"/>
</g>
</svg>
