<svg id="Warstwa_1" data-name="Warstwa 1" xmlns="http://www.w3.org/2000/svg" viewBox="0 0 80 120"><defs><style>.cls-1{fill:#fff;}</style></defs><title>id-card</title><path class="cls-1" d="M74,8H50l3.6-4.8A2,2,0,0,0,50.4.8L45,8H35.23L31.79,1.1a2,2,0,1,0-3.57,1.79L30.76,8H6a6,6,0,0,0-6,6V114a6,6,0,0,0,6,6H74a6,6,0,0,0,6-6V14a6,6,0,0,0-6-6ZM6,12H32.76l2,4A8,8,0,1,0,40,14a7.81,7.81,0,0,0-1.67.19L37.24,12H74a2,2,0,0,1,2,2V80H59.71a8.54,8.54,0,0,0-4.42-5.51L48,70.77V70a14.44,14.44,0,0,0,6.83-8.73A6,6,0,0,0,58,56V54a6,6,0,0,0-2.3-4.7C54.45,41.74,49.17,37.91,40,37.91c-.43,0-.86,0-1.27,0a10.23,10.23,0,0,1-6.46-1.48,8.15,8.15,0,0,1-1.82-1.58,2.39,2.39,0,0,0-4.27,1.75c.08.74.21,1.61.4,2.57.38,2,.38,2-.16,3.12-.21.44-.46,1-.75,1.71a22.32,22.32,0,0,0-1.41,5.29A6,6,0,0,0,22,54v2a6,6,0,0,0,3.17,5.28A14.44,14.44,0,0,0,32,70v.75l-7.54,3.72A8.54,8.54,0,0,0,20.24,80H4V14a2,2,0,0,1,2-2Zm30.66,7.8,1.55,3.09A2,2,0,0,0,40,24a2.1,2.1,0,0,0,.9-.21,2,2,0,0,0,.89-2.69L40.24,18a4,4,0,1,1-3.59,1.78ZM34,74.22A3.55,3.55,0,0,0,36,71V67.43l-1.2-.52c-3-1.31-5-3.8-6-7.63l-.28-1.06-1.06-.33A2,2,0,0,1,26,56V54a2,2,0,0,1,1.08-1.75l.94-.5.12-1.06a18.74,18.74,0,0,1,1.24-5.14c.26-.64.49-1.13.67-1.53a5.83,5.83,0,0,0,.75-3.75,14.27,14.27,0,0,0,8.25,1.68c.3,0,.62,0,.95,0,7.49,0,11.14,2.71,11.86,8.8l.13,1,.93.49A2,2,0,0,1,54,54v2a2,2,0,0,1-1.43,1.89l-1.05.33-.28,1.06c-1,3.83-3,6.32-6,7.63l-1.2.52v3.63a3.51,3.51,0,0,0,1.92,3.15l7.55,3.86a4.59,4.59,0,0,1,2,1.93h-31a4.36,4.36,0,0,1,1.86-2ZM74,116H6a2,2,0,0,1-2-2V84H76v30a2,2,0,0,1-2,2Zm0,0" transform="translate(0 0)"/><path class="cls-1" d="M58,98H22a2,2,0,0,0,0,4H58a2,2,0,1,0,0-4Zm0,0" transform="translate(0 0)"/><path class="cls-1" d="M30,94H50a2,2,0,1,0,0-4H30a2,2,0,1,0,0,4Zm0,0" transform="translate(0 0)"/><path class="cls-1" d="M24,106H22a2,2,0,0,0,0,4h2a2,2,0,0,0,0-4Zm0,0" transform="translate(0 0)"/><path class="cls-1" d="M36,106H32a2,2,0,0,0,0,4h4a2,2,0,0,0,0-4Zm0,0" transform="translate(0 0)"/><path class="cls-1" d="M46,106H44a2,2,0,0,0,0,4h2a2,2,0,1,0,0-4Zm0,0" transform="translate(0 0)"/><path class="cls-1" d="M58,106H54a2,2,0,1,0,0,4h4a2,2,0,1,0,0-4Zm0,0" transform="translate(0 0)"/></svg>