<?xml version="1.0" encoding="utf-8"?>
<!-- Generator: Adobe Illustrator 21.1.0, SVG Export Plug-In . SVG Version: 6.00 Build 0)  -->
<svg version="1.1" id="Warstwa_1" xmlns="http://www.w3.org/2000/svg" xmlns:xlink="http://www.w3.org/1999/xlink" x="0px" y="0px"
	 viewBox="0 0 15 26" style="enable-background:new 0 0 15 26;" xml:space="preserve">
<style type="text/css">
	.st0{fill:url(#SVGID_1_);}
</style>
<g id="Warstwa_x0020_1">
	
		<linearGradient id="SVGID_1_" gradientUnits="userSpaceOnUse" x1="7.5" y1="25.6801" x2="7.5" y2="-0.2673" gradientTransform="matrix(1 0 0 -1 0 25.6801)">
		<stop  offset="0" style="stop-color:#6753EC"/>
		<stop  offset="1" style="stop-color:#835BF5"/>
	</linearGradient>
	<path class="st0" d="M14.9,2.3c0-0.4-0.1-0.7-0.4-1l-0.8-0.8c-0.2-0.2-0.6-0.4-1-0.4c-0.4,0-0.7,0.1-1,0.4L0.4,12
		C0.2,12.2,0,12.6,0,13c0,0.4,0.1,0.7,0.4,1l11.3,11.5c0.2,0.2,0.6,0.4,1,0.4c0.4,0,0.7-0.1,1-0.4l0.8-0.8c0.5-0.5,0.5-1.5,0-2
		l-9.4-9.7l9.5-9.7C14.8,3.1,15,2.7,14.9,2.3L14.9,2.3z"/>
</g>
</svg>
