<svg id="Layer_1" data-name="Layer 1" xmlns="http://www.w3.org/2000/svg" viewBox="0 0 345.46 406.55"><defs><style>.cls-1{fill:#fff;}</style></defs><title>logo_eag</title><path class="cls-1" d="M346.36,218.49a8.26,8.26,0,0,0,5.86-2.43l46.92-46.92a8.29,8.29,0,0,0-11.73-11.73l-46.92,46.92a8.29,8.29,0,0,0,5.86,14.16Z" transform="translate(-83.27 -52.73)"/><path class="cls-1" d="M209.69,370.69,143.33,437a16.85,16.85,0,1,1-23.83-23.83l64-64a8.29,8.29,0,0,0-11.73-11.73l-64,64a33.44,33.44,0,1,0,47.29,47.29l66.35-66.35a8.29,8.29,0,0,0-11.73-11.73Z" transform="translate(-83.27 -52.73)"/><path class="cls-1" d="M426.3,184.57a8.29,8.29,0,0,0-11.73,0l-64,64c-5.13,5.13-11.7,8.11-17.68,8l-19.5-.3a8.34,8.34,0,0,0-6,2.43L290.05,276.1a8.29,8.29,0,1,0,11.73,11.73l14.9-14.9,16,.24c10.5.16,21.3-4.54,29.66-12.9l64-64A8.29,8.29,0,0,0,426.3,184.57Z" transform="translate(-83.27 -52.73)"/><path class="cls-1" d="M279.84,138.48a31.95,31.95,0,1,0-32,31.95A31.85,31.85,0,0,0,279.84,138.48Zm-47.2,0a15.25,15.25,0,1,1,15.25,15.25A15.22,15.22,0,0,1,232.64,138.48Z" transform="translate(-83.27 -52.73)"/><path class="cls-1" d="M277.3,301.28h0l-.12-.13a8.29,8.29,0,1,0-11.73,11.73l.13.12h0L366.5,413.94a16.85,16.85,0,0,1-23.83,23.83L283,378.11a11.87,11.87,0,0,1-2.4-13.28c3.35-7.32,2.08-15.48-3.22-20.79L267.34,334a18.35,18.35,0,0,0-26,0,11.82,11.82,0,0,1-16.72,0l-84.28-84.28c-48.16-48.16-42.88-83.25-36.65-98.53L248,295.47l9.74-9.74,1.81-1.81.18-.18h0c18.43-18.52,72.23-75,81.1-113.93,0-.41.2-.82.2-1.24a94.19,94.19,0,0,0,2.06-20.2,95.37,95.37,0,0,0-95.23-95.65c-52.49,0-95.32,42.76-95.43,95.43h0a8.29,8.29,0,1,0,16.58,0h.11c0-43.29,35.25-78.74,78.54-78.74a78.86,78.86,0,0,1,78.74,78.74,79.66,79.66,0,0,1-1.85,17.32v.61c-7.83,34.22-59.16,88.22-76.69,105.74l-.1-.1v0L107.73,131.71a8.29,8.29,0,0,0-12.3.64c-.46.57-11.33,14.2-12.11,37.36-1,29.77,14.25,60.64,45.34,91.73l84.28,84.28a28.41,28.41,0,0,0,40.18,0,1.76,1.76,0,0,1,2.49,0l10.06,10.06c.38.38.23,1.38-.13,2.16a28.54,28.54,0,0,0,5.75,31.91l59.66,59.66a33.44,33.44,0,0,0,47.29-47.29Z" transform="translate(-83.27 -52.73)"/></svg>