<?xml version="1.0" encoding="utf-8"?>
<!-- Generator: Adobe Illustrator 21.1.0, SVG Export Plug-In . SVG Version: 6.00 Build 0)  -->
<svg version="1.1" id="Layer_1" xmlns="http://www.w3.org/2000/svg" xmlns:xlink="http://www.w3.org/1999/xlink" x="0px" y="0px"
	 viewBox="0 0 425 500" style="enable-background:new 0 0 425 500;" xml:space="preserve">
<style type="text/css">
	.st0{opacity:5.000000e-02;}
	.st1{fill:#2E303F;}
</style>
<g class="st0">
	<path class="st1" d="M323.7,203.8c2.6,0,5.2-1,7.3-3l57.7-57.7c3.9-3.9,3.9-10.5,0-14.4c-3.9-3.9-10.5-3.9-14.4,0l-57.7,57.7
		c-3.9,3.9-3.9,10.5,0,14.4C318.4,202.8,321,203.8,323.7,203.8z"/>
	<path class="st1" d="M155.6,391.1l-81.7,81.6c-3.9,3.9-9.1,6-14.6,6s-10.7-2.2-14.6-6c-3.9-3.9-6-9.1-6-14.6c0-5.5,2.2-10.7,6-14.6
		l78.7-78.7c3.9-3.9,3.9-10.5,0-14.4c-3.9-3.9-10.5-3.9-14.4,0L30.2,429c-7.8,7.8-12.1,18.1-12.1,29c0,10.9,4.3,21.3,12.1,29
		s18.1,12.1,29,12.1s21.3-4.3,29-12.1l81.7-81.7c3.9-3.9,3.9-10.5,0-14.4C166,387,159.5,387,155.6,391.1z"/>
	<path class="st1" d="M422,162.1c-3.9-3.9-10.5-3.9-14.4,0l-78.7,78.7c-6.3,6.3-14.4,10-21.8,9.8l-24-0.4c-2.7,0-5.4,1-7.4,3
		l-21.4,21.4c-3.9,3.9-3.9,10.5,0,14.4c2,2,4.6,3,7.3,3c2.6,0,5.2-1,7.3-3l18.3-18.3l19.7,0.2c12.9,0.2,26.2-5.5,36.5-15.9
		l78.7-78.7C426,172.6,426,166.1,422,162.1z"/>
	<path class="st1" d="M241.8,105.4c0-21.8-17.5-39.4-39.4-39.4c-21.8,0-39.2,17.7-39.2,39.4c0,21.5,17.7,39.2,39.2,39.2
		C224.1,144.6,241.8,127.2,241.8,105.4z M183.7,105.4c0-10.5,8.4-18.8,18.7-18.8c10.5,0,18.8,8.4,18.8,18.8
		c0,10.3-8.4,18.7-18.8,18.7C192.1,124.1,183.7,115.7,183.7,105.4z"/>
	<path class="st1" d="M238.7,305.7L238.7,305.7l-0.1-0.1c-3.9-3.9-10.5-3.9-14.4,0c-3.9,3.9-3.9,10.5,0,14.4l0.1,0.1l0,0
		l124.1,124.1c8.1,8.1,8.1,21.3,0,29.3c-8.1,8.1-21.3,8.1-29.3,0l-73.4-73.3c-4.3-4.3-5.4-10.8-3-16.4c4.1-9,2.6-19.1-3.9-25.6
		l-12.4-12.3c-4.3-4.3-10-6.6-16-6.6c-6,0-11.7,2.3-16,6.6c-2.7,2.7-6.4,4.3-10.3,4.3c-3.9,0-7.5-1.5-10.3-4.3L70.1,242.2
		C10.8,182.9,17.3,139.8,25,121l177.6,177.5l11.9-11.9c0.7-0.7,1.5-1.5,2.2-2.2l0.2-0.2l0,0c22.6-22.8,88.8-92.3,99.8-140.1
		c0-0.5,0.2-1,0.2-1.5c1.8-8.1,2.6-16.5,2.6-24.9c0.2-65-52.5-117.6-117.1-117.6S85.3,52.7,85.2,117.5l0,0c0,2.6,1,5.3,3,7.3
		c3.9,3.9,10.5,3.9,14.4,0c2-2,3-4.7,3-7.3h0.1c0-53.3,43.3-96.8,96.6-96.8S299,63.9,299,117.5c0,7.4-0.7,14.5-2.3,21.3v0.7
		c-9.6,42.1-72.8,108.5-94.4,130l-0.1-0.1l0,0L30.1,97c-2.1-2.1-4.9-3.1-7.8-3s-5.5,1.5-7.4,3.8c-0.6,0.7-13.9,17.5-14.9,46
		c-1.2,36.7,17.5,74.6,55.7,112.8l103.7,103.7c6.6,6.6,15.4,10.2,24.7,10.2c9.3,0,18.1-3.7,24.7-10.2c0.5-0.5,1.1-0.6,1.5-0.6
		s1,0.1,1.5,0.6l12.4,12.4c0.5,0.5,0.2,1.7-0.1,2.7c-6,13.2-3.2,29,7.1,39.2l73.4,73.4c8,8,18.6,12.1,29,12.1c10.6,0,21-4.1,29-12.1
		c16-16,16-42.1,0-58.2L238.7,305.7z"/>
</g>
</svg>
