<?xml version="1.0" encoding="utf-8"?>
<!-- Generator: Adobe Illustrator 21.1.0, SVG Export Plug-In . SVG Version: 6.00 Build 0)  -->
<svg version="1.1" id="Warstwa_1" xmlns="http://www.w3.org/2000/svg" xmlns:xlink="http://www.w3.org/1999/xlink" x="0px" y="0px"
	 viewBox="0 0 50 68" style="enable-background:new 0 0 50 68;" xml:space="preserve">
<style type="text/css">
	.st0{fill:url(#SVGID_1_);}
</style>
<g id="Warstwa_x0020_1">
	
		<linearGradient id="SVGID_1_" gradientUnits="userSpaceOnUse" x1="25" y1="67.6801" x2="25" y2="-0.5599" gradientTransform="matrix(1 0 0 -1 0 67.6801)">
		<stop  offset="0" style="stop-color:#6753EC"/>
		<stop  offset="1" style="stop-color:#835BF5"/>
	</linearGradient>
	<path class="st0" d="M25,37c-6.9,0-12.6-5.5-12.6-12.4c0-6.8,5.6-12.4,12.6-12.4c6.9,0,12.6,5.5,12.6,12.4C37.6,31.4,32,37,25,37z
		 M50,24.6L50,24.6C50,11,38.8,0,25,0S0,11.1,0,24.6c0,16.9,22.3,41.6,23.3,42.6c0.9,1,2.5,1,3.4,0C27.6,66.2,50,41.5,50,24.6z"/>
</g>
</svg>
