<?xml version="1.0" encoding="utf-8"?>
<!-- Generator: Adobe Illustrator 21.1.0, SVG Export Plug-In . SVG Version: 6.00 Build 0)  -->
<svg version="1.1" id="Warstwa_1" xmlns="http://www.w3.org/2000/svg" xmlns:xlink="http://www.w3.org/1999/xlink" x="0px" y="0px"
	 viewBox="0 0 38 38" style="enable-background:new 0 0 38 38;" xml:space="preserve">
<style type="text/css">
	.st0{fill:#FEFEFE;}
</style>
<g id="Warstwa_x0020_1">
	<path class="st0" d="M7.6,12.8C7.6,6.6,12.7,1.5,19,1.5s11.4,5.1,11.4,11.3c0,5.7-3.2,10.6-5.9,13.7c-2.3,2.7-4.6,4.5-5.5,5.3
		c-0.9-0.7-3.2-2.6-5.5-5.2C10.8,23.4,7.6,18.5,7.6,12.8z M19,8.3c2.5,0,4.6,2,4.6,4.5c0,2.5-2.1,4.5-4.6,4.5c-2.5,0-4.6-2-4.6-4.5
		C14.4,10.3,16.5,8.3,19,8.3z M19,18.9c3.4,0,6.1-2.7,6.1-6.1c0-3.4-2.8-6.1-6.1-6.1c-3.4,0-6.1,2.7-6.1,6.1
		C12.9,16.2,15.6,18.9,19,18.9z M27.5,28c-0.4-0.1-0.8,0.2-0.9,0.7c-0.1,0.4,0.2,0.8,0.7,0.9c0.2,0,0.4,0.1,0.6,0.1c0,0,0.1,0,0.1,0
		c0.4,0,0.7-0.3,0.8-0.6c0.1-0.4-0.2-0.8-0.6-0.9C28,28.1,27.7,28.1,27.5,28L27.5,28z M38,32.8L38,32.8c0-1.8-2.3-3.2-6.9-4.1
		c-0.4-0.1-0.8,0.2-0.9,0.6c-0.1,0.4,0.2,0.8,0.6,0.9c4.5,1,5.7,2.2,5.7,2.7c0,0.5-1,1.5-4.8,2.4c-3.4,0.8-7.9,1.3-12.7,1.3
		s-9.3-0.5-12.7-1.3c-3.8-0.9-4.8-2-4.8-2.4c0-0.5,0.8-1.3,3.2-2c2.3-0.7,5.5-1.3,9.1-1.5c2.5,2.6,4.7,4.1,4.8,4.2
		c0.1,0.1,0.3,0.1,0.4,0.1c0.2,0,0.3-0.1,0.4-0.1s3.2-2.2,6.2-5.8c1.8-2.1,3.3-4.3,4.3-6.5c1.3-2.8,2-5.5,2-8.3C32,5.8,26.1,0,19,0
		C11.8,0,6,5.8,6,12.9c0,2.7,0.7,5.5,2,8.3c1,2.2,2.5,4.4,4.3,6.5c0.1,0.1,0.1,0.1,0.2,0.2c-3.3,0.3-6.1,0.8-8.3,1.5
		C1.4,30.2,0,31.4,0,32.8c0,1.6,2,2.9,5.9,3.9C9.4,37.5,14.1,38,19,38s9.6-0.5,13.1-1.3C36,35.7,38,34.4,38,32.8L38,32.8z"/>
</g>
</svg>
