<?xml version="1.0" encoding="utf-8"?>
<!-- Generator: Adobe Illustrator 21.1.0, SVG Export Plug-In . SVG Version: 6.00 Build 0)  -->
<svg version="1.1" id="Warstwa_1" xmlns="http://www.w3.org/2000/svg" xmlns:xlink="http://www.w3.org/1999/xlink" x="0px" y="0px"
	 viewBox="0 0 127 128" style="enable-background:new 0 0 127 128;" xml:space="preserve">
<style type="text/css">
	.st0{fill:url(#SVGID_1_);}
</style>
<g id="Warstwa_x0020_1">
	
		<linearGradient id="SVGID_1_" gradientUnits="userSpaceOnUse" x1="63.5" y1="112.3614" x2="63.5" y2="15.0329" gradientTransform="matrix(1 0 0 -1 0 127.6801)">
		<stop  offset="0" style="stop-color:#6753EC"/>
		<stop  offset="1" style="stop-color:#835BF5"/>
	</linearGradient>
	<path class="st0" d="M25.3,43.2C25.3,22.2,42.4,5,63.5,5s38.3,17.1,38.3,38.2c0,19-10.7,35.6-19.7,46.2c-7.6,9-15.4,15.3-18.5,17.7
		c-3.1-2.4-10.8-8.6-18.5-17.6C36,78.9,25.3,62.3,25.3,43.2z M63.5,27.9c8.5,0,15.3,6.9,15.3,15.3c0,8.5-6.9,15.3-15.3,15.3
		c-8.5,0-15.3-6.9-15.3-15.3C48.2,34.8,55.1,27.9,63.5,27.9z M63.5,63.7c11.3,0,20.5-9.2,20.5-20.4c0-11.3-9.2-20.4-20.5-20.4
		c-11.3,0-20.5,9.2-20.5,20.4C43.1,54.6,52.3,63.7,63.5,63.7z M92,94.4c-1.4-0.2-2.7,0.8-2.9,2.2c-0.2,1.4,0.8,2.7,2.2,2.9
		c0.7,0.1,1.4,0.2,2.2,0.3c0.1,0,0.2,0,0.4,0c1.3,0,2.3-0.9,2.5-2.2c0.2-1.4-0.8-2.7-2.2-2.9C93.5,94.6,92.7,94.6,92,94.4L92,94.4z
		 M127,110.3L127,110.3c-0.1-6-7.8-10.6-23-13.9c-1.4-0.3-2.8,0.6-3.1,2c-0.3,1.4,0.6,2.8,2,3.1c15,3.2,19,7.3,19,8.9
		c0,1.6-3.4,5.1-15.9,8.2c-11.3,2.8-26.4,4.4-42.5,4.4s-31.2-1.6-42.5-4.4c-12.6-3.1-15.9-6.7-15.9-8.2s2.8-4.3,10.6-6.8
		c7.6-2.5,18.3-4.3,30.3-5.2c8.4,8.8,15.6,13.8,15.9,14c0.4,0.3,1,0.5,1.4,0.5c0.5,0,1-0.2,1.4-0.5s10.6-7.5,20.9-19.6
		c6.1-7.1,10.9-14.5,14.4-21.8c4.4-9.3,6.6-18.6,6.6-27.8C106.8,19.4,87.4,0,63.5,0C39.5,0,20.1,19.5,20.1,43.3
		c0,9.1,2.2,18.5,6.6,27.8c3.5,7.4,8.3,14.7,14.4,21.8c0.2,0.2,0.4,0.5,0.7,0.7c-10.9,1-20.4,2.8-27.6,5.1
		c-9.4,3.1-14.1,7-14.1,11.6c0,5.5,6.7,9.9,19.8,13.1c11.7,2.9,27.2,4.5,43.7,4.5s32-1.6,43.7-4.5
		C120.3,120.3,126.9,115.8,127,110.3L127,110.3z"/>
</g>
</svg>
