<?xml version="1.0" encoding="utf-8"?>
<!-- Generator: Adobe Illustrator 21.1.0, SVG Export Plug-In . SVG Version: 6.00 Build 0)  -->
<svg version="1.1" id="Warstwa_1" xmlns="http://www.w3.org/2000/svg" xmlns:xlink="http://www.w3.org/1999/xlink" x="0px" y="0px"
	 viewBox="0 0 50 50" style="enable-background:new 0 0 50 50;" xml:space="preserve">
<style type="text/css">
	.st0{fill:#FEFEFE;}
</style>
<g id="Warstwa_x0020_1">
	<path class="st0" d="M49,22.1L39,32.4l2.4,14.3c0,0.8-0.4,2-1.2,2.9C39.8,50,39,50,38.6,50s-0.8,0-1.2-0.4L24.9,43l-12.5,6.6
		c-0.8,0.4-2,0.4-2.8-0.4c-0.8-0.4-1.2-1.6-1.2-2.9L10.9,32l-10-10.2C0,20.9,0,20.1,0,18.9c0.4-0.8,1.2-1.6,2-2l14.1-2l6.4-13.1
		C22.9,0.8,23.7,0,24.9,0s2,0.4,2.4,1.6l6.4,13.1l14.1,2c1.2,0,2,0.8,2,2c0.4,0.8,0,2-0.8,2.9V22.1z"/>
</g>
</svg>
