<?xml version="1.0" encoding="utf-8"?>
<!-- Generator: Adobe Illustrator 21.1.0, SVG Export Plug-In . SVG Version: 6.00 Build 0)  -->
<svg version="1.1" id="Warstwa_1" xmlns="http://www.w3.org/2000/svg" xmlns:xlink="http://www.w3.org/1999/xlink" x="0px" y="0px"
	 viewBox="0 0 35 38" style="enable-background:new 0 0 35 38;" xml:space="preserve">
<style type="text/css">
	.st0{fill:#FEFEFE;}
</style>
<g id="Warstwa_x0020_1">
	<path class="st0" d="M5.3,26.7C5.3,26.3,5.6,26,6,26h0.2C6.7,26,7,26.3,7,26.7c0,0.4-0.3,0.8-0.8,0.8H6C5.6,27.5,5.3,27.2,5.3,26.7
		z M22.1,10.6c-1.1,0.4-1.8,1.3-1.8,2.4c0,1.4,1.2,2.6,2.6,2.6H30c1.4,0,2.6-1.1,2.6-2.6c0-1.1-0.7-2.1-1.8-2.4
		c-0.4-0.1-0.9,0.1-1,0.5c-0.1,0.4,0.1,0.8,0.5,1c0.4,0.1,0.7,0.5,0.7,1c0,0.6-0.5,1-1,1h-7.1c-0.6,0-1-0.5-1-1c0-0.4,0.3-0.8,0.7-1
		c0.4-0.1,0.6-0.6,0.5-1C23,10.7,22.5,10.5,22.1,10.6z M10.5,33c-0.4-0.1-0.9,0.1-1,0.5c-0.1,0.4,0.1,0.8,0.5,1s0.7,0.5,0.7,1
		c0,0.6-0.5,1-1,1H2.6c-0.6,0-1-0.5-1-1c0-0.4,0.3-0.8,0.7-1c0.4-0.1,0.6-0.6,0.5-1c-0.1-0.4-0.6-0.6-1-0.5C0.7,33.4,0,34.4,0,35.4
		C0,36.9,1.2,38,2.6,38h7.1c1.4,0,2.6-1.1,2.6-2.6C12.2,34.4,11.5,33.4,10.5,33z M4,32.4c-1.4-2.7-2.3-4.6-2.3-5.7
		c0-2.4,2-4.3,4.4-4.3s4.4,1.9,4.4,4.3c0,1.1-0.9,3-2.3,5.7c0,0-0.5,1-0.5,1c-0.2,0.4-0.6,1.2-1.6,1.2s-1.4-0.8-1.6-1.2
		C4.5,33.4,4,32.4,4,32.4z M3.3,26.7c0,0.9,1.5,3.8,2.1,5c0,0,0.7,1.3,0.7,1.4c0,0.1,0.1,0,0.1,0c0.1-0.1,0.1-0.2,0.2-0.3
		c0-0.1,0.5-1,0.5-1c0.6-1.2,2.1-4,2.1-5c0-1.5-1.3-2.8-2.8-2.8S3.3,25.2,3.3,26.7L3.3,26.7z M35,0.8v5.5c0,0.4-0.3,0.8-0.8,0.8h-7
		v3.5h0.6c0.4,0,0.8,0.3,0.8,0.8s-0.3,0.8-0.8,0.8H25c-0.4,0-0.8-0.3-0.8-0.8s0.3-0.8,0.8-0.8h0.6V6.3c0,0,0,0,0,0c0,0,0,0,0,0V0.8
		c0,0,0,0,0,0C25.7,0.3,26,0,26.4,0h7.8C34.7,0,35,0.3,35,0.8L35,0.8z M33.4,1.6h-6.2v4h6.2V1.6z M28.6,18.2H6.4
		c-2.6,0-4.8-2.1-4.8-4.7s2.2-4.7,4.8-4.7H22c0.4,0,0.8-0.3,0.8-0.8c0-0.4-0.3-0.8-0.8-0.8H6.4C2.9,7.3,0,10.1,0,13.5
		s2.9,6.3,6.4,6.3h22.3c2.6,0,4.8,2.1,4.8,4.7s-2.2,4.7-4.8,4.7H13c-0.4,0-0.8,0.3-0.8,0.8c0,0.4,0.3,0.8,0.8,0.8h15.7
		c3.5,0,6.4-2.8,6.4-6.3S32.1,18.2,28.6,18.2z"/>
</g>
</svg>
