<?xml version="1.0" encoding="utf-8"?>
<!-- Generator: Adobe Illustrator 21.1.0, SVG Export Plug-In . SVG Version: 6.00 Build 0)  -->
<svg version="1.1" id="Warstwa_1" xmlns="http://www.w3.org/2000/svg" xmlns:xlink="http://www.w3.org/1999/xlink" x="0px" y="0px"
	 viewBox="0 0 116 128" style="enable-background:new 0 0 116 128;" xml:space="preserve">
<style type="text/css">
	.st0{fill:url(#SVGID_1_);}
</style>
<g id="Warstwa_x0020_1">
	
		<linearGradient id="SVGID_1_" gradientUnits="userSpaceOnUse" x1="58" y1="127.5279" x2="58" y2="-0.2589" gradientTransform="matrix(1 0 0 -1 0 127.6801)">
		<stop  offset="0" style="stop-color:#6753EC"/>
		<stop  offset="1" style="stop-color:#835BF5"/>
	</linearGradient>
	<path class="st0" d="M17.4,90.1c0-1.5,1.1-2.6,2.6-2.6h0.6c1.5,0,2.6,1.1,2.6,2.6c0,1.5-1.1,2.6-2.6,2.6H20
		C18.6,92.7,17.4,91.6,17.4,90.1z M73.3,35.8c-3.5,1.2-5.8,4.5-5.8,8.2c0,4.7,3.9,8.6,8.6,8.6h23.4c4.7,0,8.6-3.9,8.6-8.6
		c0-3.7-2.3-7-5.8-8.2c-1.4-0.4-2.8,0.3-3.3,1.6c-0.4,1.4,0.3,2.8,1.6,3.3c1.4,0.4,2.3,1.8,2.3,3.3c0,1.9-1.5,3.4-3.4,3.4H76
		c-1.9,0-3.4-1.5-3.4-3.4c0-1.5,0.9-2.8,2.3-3.3c1.4-0.4,2.1-1.9,1.6-3.3C76.1,36.1,74.7,35.4,73.3,35.8z M34.7,111.2
		c-1.4-0.4-2.8,0.3-3.3,1.6s0.3,2.8,1.6,3.3c1.4,0.4,2.3,1.8,2.3,3.3c0,1.9-1.5,3.4-3.4,3.4H8.6c-1.9,0-3.4-1.5-3.4-3.4
		c0-1.5,0.9-2.8,2.3-3.3c1.4-0.4,2.1-1.9,1.6-3.3c-0.4-1.4-1.9-2.1-3.3-1.6c-3.5,1.2-5.8,4.5-5.8,8.2c0,4.7,3.9,8.6,8.6,8.6H32
		c4.7,0,8.6-3.9,8.6-8.6C40.6,115.7,38.2,112.4,34.7,111.2z M13.2,109.2c-4.6-9-7.5-15.4-7.5-19.1c0-8,6.5-14.5,14.5-14.5
		s14.5,6.5,14.5,14.5c0,3.7-2.8,10.1-7.5,19.1c0,0-1.6,3.3-1.7,3.4c-0.7,1.4-1.9,4-5.3,4s-4.7-2.6-5.3-4
		C14.9,112.4,13.2,109.2,13.2,109.2z M10.9,90.1c0,3.2,4.8,12.7,6.9,16.8c0,0,2.2,4.4,2.3,4.6s0.3,0.1,0.3,0c0.2-0.2,0.4-0.7,0.5-1
		c0.1-0.2,1.8-3.5,1.8-3.5c2.1-4,6.9-13.5,6.9-16.8c0-5.2-4.2-9.4-9.4-9.4S10.8,84.9,10.9,90.1L10.9,90.1z M116,2.8v18.5
		c0,1.5-1.1,2.6-2.6,2.6H90.2v11.9h2.1c1.5,0,2.6,1.1,2.6,2.6s-1.1,2.6-2.6,2.6H83c-1.5,0-2.6-1.1-2.6-2.6s1.1-2.6,2.6-2.6h2.1V21.2
		c0,0,0,0,0-0.1c0,0,0,0,0-0.1V2.7c0,0,0,0,0-0.1c0-1.5,1.1-2.6,2.6-2.6h25.8c1.5,0,2.6,1.1,2.6,2.6V2.8z M110.8,5.3H90.2v13.3h20.6
		V5.3z M94.9,61.5H21.1c-8.8,0-15.9-7.1-15.9-15.9s7.1-15.9,15.9-15.9h52c1.5,0,2.6-1.1,2.6-2.6c0-1.5-1.1-2.6-2.6-2.6h-52
		C9.5,24.5,0,34,0,45.6s9.5,21.1,21.1,21.1h73.9c8.8,0,15.9,7.1,15.9,15.9s-7.1,15.9-15.9,15.9H43c-1.5,0-2.6,1.1-2.6,2.6
		c0,1.5,1.1,2.6,2.6,2.6h52c11.6,0,21.1-9.5,21.1-21.1S106.5,61.5,94.9,61.5z"/>
</g>
</svg>
