<?xml version="1.0" encoding="utf-8"?>
<!-- Generator: Adobe Illustrator 21.1.0, SVG Export Plug-In . SVG Version: 6.00 Build 0)  -->
<svg version="1.1" id="Warstwa_1" xmlns="http://www.w3.org/2000/svg" xmlns:xlink="http://www.w3.org/1999/xlink" x="0px" y="0px"
	 viewBox="0 0 30 30" style="enable-background:new 0 0 30 30;" xml:space="preserve">
<style type="text/css">
	.st0{fill:url(#SVGID_1_);}
</style>
<g id="Warstwa_x0020_1">
	
		<linearGradient id="SVGID_1_" gradientUnits="userSpaceOnUse" x1="15" y1="29.6082" x2="15" y2="-0.3399" gradientTransform="matrix(1 0 0 -1 0 29.6801)">
		<stop  offset="0" style="stop-color:#6753EC"/>
		<stop  offset="1" style="stop-color:#835BF5"/>
	</linearGradient>
	<path class="st0" d="M9.7,16.5C8.2,14.5,7,12,7,9.4C7,7.5,7.1,5.7,8,3.9C9.4,1.1,12.1,0,15.1,0s5.7,1.1,7.1,3.9
		c0.9,1.8,0.9,3.7,0.9,5.6c0,2.5-1.1,5-2.7,7.1c0,0,0.1,0,0.1,0.1c0.4,0.2,0.8,0.5,1.2,0.7c0.5,0.3,0.9,0.5,1.4,0.7
		c0.9,0.5,1.9,0.9,2.8,1.5c0.7,0.4,1.3,0.8,1.9,1.3c1.5,1.5,2.2,4,2.3,6.1c0,0.9-0.3,1.7-0.9,2.3c-0.6,0.6-1.4,0.9-2.3,0.9H3.2
		c-0.9,0-1.7-0.3-2.3-0.9C0.3,28.5,0,27.7,0,26.9v-0.1c0-0.8,0.1-1.7,0.3-2.5c0.3-1.3,0.9-2.7,1.9-3.6c0.5-0.5,1.2-1,1.9-1.3
		c0.9-0.5,1.9-1,2.8-1.5c0.5-0.2,0.9-0.5,1.4-0.7c0.4-0.2,0.8-0.4,1.2-0.7c0,0,0.1,0,0.1-0.1H9.7z M26.7,26.7
		c-0.1-1.2-0.5-2.8-1.3-3.6c-0.3-0.3-0.9-0.7-1.3-0.9c-0.8-0.5-1.7-0.9-2.5-1.3c-0.9-0.4-1.7-0.9-2.5-1.3c-0.5-0.3-1.1-0.6-1.5-1
		l-0.2-0.2l-0.2-3l0.2-0.3c1.2-1.5,2.4-3.6,2.4-5.6c0-1.3,0-2.9-0.6-4.1c-0.8-1.6-2.5-2-4.1-2s-3.3,0.4-4.1,2
		c-0.6,1.2-0.6,2.7-0.6,4.1c0,2,1.2,4.1,2.4,5.6l0.2,0.3l-0.2,3l-0.2,0.2c-0.4,0.4-1,0.7-1.5,1c-0.8,0.5-1.7,0.9-2.5,1.3
		c-0.8,0.4-1.7,0.8-2.5,1.3c-0.4,0.3-1,0.5-1.3,0.9c-0.8,0.8-1.2,2.5-1.3,3.6H26.7L26.7,26.7z"/>
</g>
</svg>
